<svg xmlns="http://www.w3.org/2000/svg" width="18" height="15" viewBox="0 0 18 15" xmlns:xlink="http://www.w3.org/1999/xlink">
  <defs>
    <rect id="c" width="940" height="797"/>
    <filter id="b" width="200%" height="200%" x="-50%" y="-50%" filterUnits="objectBoundingBox">
      <feOffset in="SourceAlpha" result="shadowOffsetOuter1"/>
      <feGaussianBlur stdDeviation="5" in="shadowOffsetOuter1" result="shadowBlurOuter1"/>
      <feColorMatrix values="0 0 0 0 0.180392157 0 0 0 0 0.239215686 0 0 0 0 0.28627451 0 0 0 0.1 0" in="shadowBlurOuter1"/>
    </filter>
    <rect id="a" width="380" height="158.25"/>
    <mask id="d" width="380" height="158.25" x="0" y="0" fill="white">
      <use xlink:href="#a"/>
    </mask>
    <filter id="e" width="200%" height="200%" x="-50%" y="-50%" filterUnits="objectBoundingBox">
      <feOffset in="SourceAlpha" result="shadowOffsetOuter1"/>
      <feGaussianBlur stdDeviation="5" in="shadowOffsetOuter1" result="shadowBlurOuter1"/>
      <feColorMatrix values="0 0 0 0 0.180392157 0 0 0 0 0.239215686 0 0 0 0 0.28627451 0 0 0 0.1 0" in="shadowBlurOuter1" result="shadowMatrixOuter1"/>
      <feMerge>
        <feMergeNode in="shadowMatrixOuter1"/>
        <feMergeNode in="SourceGraphic"/>
      </feMerge>
    </filter>
    <rect id="f" width="660" height="850" rx="6"/>
    <filter id="g" width="200%" height="200%" x="-50%" y="-50%" filterUnits="objectBoundingBox">
      <feOffset in="SourceAlpha" result="shadowOffsetOuter1"/>
      <feGaussianBlur stdDeviation="5" in="shadowOffsetOuter1" result="shadowBlurOuter1"/>
      <feColorMatrix values="0 0 0 0 0.180392157 0 0 0 0 0.239215686 0 0 0 0 0.28627451 0 0 0 0.1 0" in="shadowBlurOuter1"/>
    </filter>
  </defs>
  <g fill="none" fill-rule="evenodd" transform="translate(-464 -570)">
    <g transform="translate(250 -8)">
      <use fill="black" filter="url(#b)" xlink:href="#c"/>
      <use fill="#FFFFFF" xlink:href="#c"/>
      <g fill="#FFFFFF" stroke="#DBE2E8" stroke-width="2" transform="translate(60 588)">
        <use mask="url(#d)" transform="matrix(1 0 0 -1 21 158.25)" xlink:href="#a"/>
      </g>
    </g>
    <rect width="1440" height="950" fill="#2E3D49" opacity=".5"/>
    <g filter="url(#e)" transform="translate(390 103)">
      <use fill="black" filter="url(#g)" xlink:href="#f"/>
      <use fill="#FFFFFF" xlink:href="#f"/>
    </g>
    <g fill="#02B3E4" transform="translate(464 570)">
      <path d="M8.707,11 C8.963,11 9.219,10.902 9.414,10.707 L13.414,6.707 L12,5.293 L9.707,7.586 L9.707,0 L7.707,0 L7.707,7.586 L5.414,5.293 L4,6.707 L8,10.707 C8.195,10.902 8.451,11 8.707,11"/>
      <path d="M16,5 L16,13 L2,13 L2,5 L0,5 L0,14.091 C0,14.593 0.362,15 0.81,15 L17.19,15 C17.638,15 18,14.593 18,14.091 L18,5 L16,5 Z"/>
    </g>
  </g>
</svg>
